<svg id="visual" viewBox="0 0 900 600" width="900" height="600" xmlns="http://www.w3.org/2000/svg" xmlns:xlink="http://www.w3.org/1999/xlink" version="1.1"><rect x="0" y="0" width="900" height="600" fill="#001122"></rect><path d="M0 346L30 345C60 344 120 342 180 350.8C240 359.7 300 379.3 360 387.8C420 396.3 480 393.7 540 379.8C600 366 660 341 720 335.5C780 330 840 344 870 351L900 358L900 601L870 601C840 601 780 601 720 601C660 601 600 601 540 601C480 601 420 601 360 601C300 601 240 601 180 601C120 601 60 601 30 601L0 601Z" fill="#e5bf4d"></path><path d="M0 414L30 416.5C60 419 120 424 180 420.8C240 417.7 300 406.3 360 407C420 407.7 480 420.3 540 424.5C600 428.7 660 424.3 720 426.2C780 428 840 436 870 440L900 444L900 601L870 601C840 601 780 601 720 601C660 601 600 601 540 601C480 601 420 601 360 601C300 601 240 601 180 601C120 601 60 601 30 601L0 601Z" fill="#a9b351"></path><path d="M0 473L30 468.3C60 463.7 120 454.3 180 450.2C240 446 300 447 360 456.2C420 465.3 480 482.7 540 482.5C600 482.3 660 464.7 720 464.2C780 463.7 840 480.3 870 488.7L900 497L900 601L870 601C840 601 780 601 720 601C660 601 600 601 540 601C480 601 420 601 360 601C300 601 240 601 180 601C120 601 60 601 30 601L0 601Z" fill="#76a25c"></path><path d="M0 521L30 525.5C60 530 120 539 180 544.2C240 549.3 300 550.7 360 547.8C420 545 480 538 540 534.5C600 531 660 531 720 532.2C780 533.3 840 535.7 870 536.8L900 538L900 601L870 601C840 601 780 601 720 601C660 601 600 601 540 601C480 601 420 601 360 601C300 601 240 601 180 601C120 601 60 601 30 601L0 601Z" fill="#508d65"></path></svg>