<svg id="visual" viewBox="0 0 4000 4000" width="4000" height="4000" xmlns="http://www.w3.org/2000/svg" xmlns:xlink="http://www.w3.org/1999/xlink" version="1.1"><rect x="0" y="0" width="4000" height="4000" fill="#001220"></rect><defs><linearGradient id="grad1_0" x1="0%" y1="0%" x2="100%" y2="100%"><stop offset="30%" stop-color="#001220" stop-opacity="1"></stop><stop offset="70%" stop-color="#001220" stop-opacity="1"></stop></linearGradient></defs><defs><linearGradient id="grad2_0" x1="0%" y1="0%" x2="100%" y2="100%"><stop offset="30%" stop-color="#001220" stop-opacity="1"></stop><stop offset="70%" stop-color="#001220" stop-opacity="1"></stop></linearGradient></defs><g transform="translate(4000, 0)"><path d="M0 1838.5C-170.6 1750.1 -341.3 1661.8 -525 1615.8C-708.7 1569.9 -905.6 1566.3 -1080.6 1487.4C-1255.7 1408.5 -1409 1254.3 -1483.7 1078C-1558.5 901.7 -1554.6 703.4 -1600.6 520.1C-1646.7 336.7 -1742.6 168.4 -1838.5 0L0 0Z" fill="#FBAE3C"></path></g><g transform="translate(0, 4000)"><path d="M0 -1838.5C203.5 -1839.6 407.1 -1840.7 568.1 -1748.5C729.2 -1656.3 847.7 -1470.6 960.4 -1321.9C1073.2 -1173.2 1180 -1061.4 1292 -938.7C1404 -816 1521.1 -682.4 1613 -524.1C1704.9 -365.8 1771.7 -182.9 1838.5 0L0 0Z" fill="#FBAE3C"></path></g></svg>